<?xml version="1.0" encoding="UTF-8"?>
<svg width="446px" height="512px" viewBox="0 0 446 512" version="1.1" xmlns="http://www.w3.org/2000/svg" xmlns:xlink="http://www.w3.org/1999/xlink">
    <!-- Generator: Sketch 43.2 (39069) - http://www.bohemiancoding.com/sketch -->
    <title>carrots</title>
    <desc>Created with Sketch.</desc>
    <defs></defs>
    <g id="Page-1" stroke="none" stroke-width="1" fill="none" fill-rule="evenodd">
        <g id="carrots" fill-rule="nonzero">
            <g id="Group" transform="translate(292.000000, 63.000000)" fill="#43A838">
                <path d="M68.034,113.645 C63.892,113.645 60.535,110.288 60.535,106.146 L60.535,7.964 C60.535,3.823 63.891,0.465 68.034,0.465 C72.177,0.465 75.533,3.822 75.533,7.964 L75.533,106.146 C75.533,110.288 72.176,113.645 68.034,113.645 Z" id="Shape"></path>
                <path d="M79.503,113.641 C79.442,113.641 79.382,113.641 79.321,113.639 C75.183,113.54 71.908,110.112 72.003,105.974 C72.072,102.966 74.26,31.999 123.674,6.277 C127.346,4.365 131.875,5.792 133.787,9.466 C135.7,13.139 134.271,17.667 130.599,19.58 C89.092,41.185 87.012,105.677 86.997,106.326 C86.896,110.402 83.559,113.641 79.503,113.641 Z" id="Shape"></path>
                <path d="M55.625,113.645 C51.565,113.645 48.229,110.404 48.131,106.325 C48.113,105.637 46.024,41.179 4.53,19.58 C0.857,17.667 -0.572,13.14 1.342,9.466 C3.254,5.792 7.782,4.365 11.455,6.277 C60.87,31.999 63.055,102.967 63.125,105.974 C63.22,110.114 59.94,113.548 55.8,113.643 C55.741,113.644 55.683,113.645 55.625,113.645 Z" id="Shape"></path>
            </g>
            <path d="M362.999,169.146 L362.96,169.146 C304.711,169.146 278.699,199.942 281.025,242.306 C281.11,243.846 282.207,269.328 282.301,270.483 L290.36,369.507 C296.972,478.357 351.724,507.357 361.506,511.688 C361.971,511.894 362.465,511.995 362.96,512.001 L362.999,512.001 C363.494,511.996 363.988,511.894 364.453,511.688 C374.234,507.357 428.987,478.357 435.599,369.507 L443.658,270.483 C443.752,269.328 444.849,243.846 444.934,242.306 C447.259,199.942 421.248,169.146 362.999,169.146 Z" id="Shape" fill="#FD7555"></path>
            <g id="Group" transform="translate(280.000000, 169.000000)" fill="#EF431D">
                <path d="M164.929,73.302 C164.846,74.842 163.75,100.324 163.658,101.486 L155.602,200.512 C148.99,309.356 94.232,338.361 84.452,342.685 C83.992,342.897 83.494,342.999 82.997,342.999 L82.96,342.999 C82.463,342.999 81.965,342.898 81.505,342.685 C79.414,341.763 75.29,339.717 70.013,336.01 C89.469,322.347 124.45,286.123 129.662,200.513 L137.718,101.487 C137.81,100.325 138.906,74.843 138.989,73.303 C141.135,34.222 119.165,4.987 70.013,0.691 C74.138,0.331 78.447,0.147 82.96,0.147 L82.997,0.147 C141.247,0.146 167.259,30.938 164.929,73.302 Z" id="Shape"></path>
                <path d="M117.177,125.328 L95.607,125.328 C91.408,125.328 88.004,121.925 88.004,117.725 C88.004,113.525 91.407,110.122 95.607,110.122 L117.177,110.122 C121.376,110.122 124.78,113.525 124.78,117.725 C124.78,121.925 121.376,125.328 117.177,125.328 Z" id="Shape"></path>
                <path d="M149.922,56.897 L128.352,56.897 C124.153,56.897 120.749,53.494 120.749,49.294 C120.749,45.094 124.152,41.691 128.352,41.691 L149.922,41.691 C154.121,41.691 157.525,45.094 157.525,49.294 C157.525,53.494 154.12,56.897 149.922,56.897 Z" id="Shape"></path>
                <path d="M1.445,82.779 C2.485,83.319 3.665,83.619 4.914,83.619 L26.48,83.619 C30.679,83.619 34.079,80.22 34.079,76.02 C34.079,71.82 30.68,68.421 26.48,68.421 L4.914,68.421 C3.434,68.421 2.055,68.841 0.895,69.581 L1.445,82.779 Z" id="Shape"></path>
                <path d="M78.548,184.906 L59.209,184.906 C55.01,184.906 51.606,181.503 51.606,177.303 C51.606,173.104 55.009,169.7 59.209,169.7 L78.548,169.7 C82.747,169.7 86.151,173.103 86.151,177.303 C86.15,181.503 82.747,184.906 78.548,184.906 Z" id="Shape"></path>
                <path d="M59.952,255.655 L40.614,255.655 C36.415,255.655 33.011,252.252 33.011,248.052 C33.011,243.852 36.414,240.449 40.614,240.449 L59.952,240.449 C64.151,240.449 67.555,243.852 67.555,248.052 C67.555,252.252 64.151,255.655 59.952,255.655 Z" id="Shape"></path>
                <path d="M101.169,307.649 L81.83,307.649 C77.631,307.649 74.227,304.246 74.227,300.046 C74.227,295.846 77.63,292.443 81.83,292.443 L101.169,292.443 C105.368,292.443 108.772,295.846 108.772,300.046 C108.772,304.246 105.368,307.649 101.169,307.649 Z" id="Shape"></path>
            </g>
            <g id="Group" transform="translate(12.000000, 63.000000)" fill="#43A838">
                <path d="M68.078,113.645 C63.936,113.645 60.579,110.288 60.579,106.146 L60.579,7.964 C60.579,3.823 63.935,0.465 68.078,0.465 C72.221,0.465 75.577,3.822 75.577,7.964 L75.577,106.146 C75.577,110.288 72.221,113.645 68.078,113.645 Z" id="Shape"></path>
                <path d="M79.547,113.641 C79.486,113.641 79.426,113.641 79.365,113.639 C75.227,113.54 71.952,110.112 72.047,105.974 C72.116,102.966 74.303,31.999 123.717,6.277 C127.389,4.365 131.918,5.792 133.83,9.466 C135.743,13.139 134.314,17.667 130.642,19.58 C89.135,41.185 87.056,105.677 87.041,106.326 C86.94,110.402 83.603,113.641 79.547,113.641 Z" id="Shape"></path>
                <path d="M55.669,113.645 C51.609,113.645 48.273,110.404 48.175,106.325 C48.157,105.637 46.068,41.179 4.574,19.58 C0.901,17.667 -0.528,13.14 1.386,9.466 C3.298,5.792 7.828,4.365 11.499,6.277 C60.914,31.999 63.099,102.967 63.169,105.974 C63.264,110.114 59.984,113.548 55.844,113.643 C55.786,113.644 55.727,113.645 55.669,113.645 Z" id="Shape"></path>
            </g>
            <path d="M83.042,169.146 L83.003,169.146 C24.754,169.146 -1.258,199.942 1.069,242.306 C1.154,243.846 2.251,269.328 2.345,270.483 L10.404,369.507 C17.016,478.357 71.768,507.357 81.55,511.688 C82.015,511.894 82.509,511.995 83.004,512.001 L83.043,512.001 C83.538,511.996 84.032,511.894 84.497,511.688 C94.278,507.357 149.031,478.357 155.643,369.507 L163.702,270.483 C163.796,269.328 164.893,243.846 164.978,242.306 C167.303,199.942 141.292,169.146 83.042,169.146 Z" id="Shape" fill="#FD7555"></path>
            <g id="Group" transform="translate(0.000000, 169.000000)" fill="#EF431D">
                <path d="M164.973,73.302 C164.89,74.842 163.794,100.324 163.702,101.486 L155.646,200.512 C149.034,309.356 94.276,338.361 84.496,342.685 C84.036,342.897 83.538,342.999 83.041,342.999 L83.004,342.999 C82.507,342.999 82.009,342.898 81.549,342.685 C79.458,341.763 75.334,339.717 70.057,336.01 C89.513,322.347 124.494,286.123 129.706,200.513 L137.762,101.487 C137.854,100.325 138.95,74.843 139.033,73.303 C141.179,34.222 119.209,4.987 70.057,0.691 C74.182,0.331 78.491,0.147 83.004,0.147 L83.041,0.147 C141.29,0.146 167.303,30.938 164.973,73.302 Z" id="Shape"></path>
                <path d="M117.221,125.328 L95.652,125.328 C91.453,125.328 88.049,121.925 88.049,117.725 C88.049,113.525 91.452,110.122 95.652,110.122 L117.221,110.122 C121.42,110.122 124.824,113.525 124.824,117.725 C124.824,121.925 121.42,125.328 117.221,125.328 Z" id="Shape"></path>
                <path d="M149.965,56.897 L128.395,56.897 C124.196,56.897 120.792,53.494 120.792,49.294 C120.792,45.094 124.195,41.691 128.395,41.691 L149.965,41.691 C154.164,41.691 157.568,45.094 157.568,49.294 C157.568,53.494 154.164,56.897 149.965,56.897 Z" id="Shape"></path>
                <path d="M1.498,82.779 C2.538,83.319 3.708,83.619 4.957,83.619 L26.523,83.619 C30.722,83.619 34.132,80.22 34.132,76.02 C34.132,71.82 30.723,68.421 26.523,68.421 L4.958,68.421 C3.478,68.421 2.109,68.841 0.939,69.581 L1.498,82.779 Z" id="Shape"></path>
                <path d="M78.592,184.906 L59.252,184.906 C55.053,184.906 51.649,181.503 51.649,177.303 C51.649,173.104 55.052,169.7 59.252,169.7 L78.591,169.7 C82.79,169.7 86.194,173.103 86.194,177.303 C86.194,181.503 82.79,184.906 78.592,184.906 Z" id="Shape"></path>
                <path d="M59.996,255.655 L40.658,255.655 C36.459,255.655 33.055,252.252 33.055,248.052 C33.055,243.852 36.458,240.449 40.658,240.449 L59.996,240.449 C64.195,240.449 67.599,243.852 67.599,248.052 C67.599,252.252 64.195,255.655 59.996,255.655 Z" id="Shape"></path>
                <path d="M101.213,307.649 L81.874,307.649 C77.675,307.649 74.271,304.246 74.271,300.046 C74.271,295.846 77.674,292.443 81.874,292.443 L101.213,292.443 C105.412,292.443 108.816,295.846 108.816,300.046 C108.816,304.246 105.412,307.649 101.213,307.649 Z" id="Shape"></path>
            </g>
            <g id="Group" transform="translate(141.000000, 0.000000)" fill="#43A838">
                <path d="M77.396,127.312 C73.255,127.352 69.865,124.027 69.825,119.885 L68.747,7.571 C68.708,3.43 72.032,0.04 76.173,0 C80.314,-0.04 83.704,3.285 83.744,7.427 L84.823,119.742 C84.863,123.883 81.538,127.272 77.396,127.312 Z" id="Shape"></path>
                <path d="M90.516,127.186 C90.458,127.187 90.4,127.187 90.341,127.186 C86.201,127.131 82.888,123.73 82.942,119.588 C82.987,116.172 84.696,35.581 140.383,5.911 C144.037,3.964 148.579,5.347 150.526,9.003 C152.474,12.658 151.089,17.199 147.435,19.147 C99.488,44.693 97.948,119.04 97.938,119.788 C97.884,123.87 94.577,127.147 90.516,127.186 Z" id="Shape"></path>
                <path d="M63.202,127.448 C59.142,127.487 55.773,124.277 55.638,120.197 C55.607,119.315 52.472,45.053 4.217,20.521 C0.526,18.644 -0.946,14.13 0.932,10.438 C2.809,6.746 7.324,5.276 11.014,7.152 C67.261,35.748 70.517,116.29 70.628,119.706 C70.763,123.845 67.516,127.31 63.377,127.445 C63.318,127.447 63.259,127.448 63.202,127.448 Z" id="Shape"></path>
            </g>
            <path d="M221.714,119.782 L221.67,119.782 C155.037,120.422 125.619,155.937 128.746,204.373 C128.86,206.133 130.395,235.271 130.515,236.591 L140.823,349.782 C149.582,474.228 212.535,506.8 223.772,511.647 C224.306,511.877 224.873,511.988 225.439,511.989 L225.483,511.989 C226.049,511.978 226.614,511.856 227.143,511.615 C238.285,506.553 300.6,472.777 306.968,348.186 L315.099,234.818 C315.194,233.496 316.169,204.334 316.248,202.572 C318.443,154.085 288.349,119.141 221.714,119.782 Z" id="Shape" fill="#FD7555"></path>
            <g id="Group" transform="translate(128.000000, 119.000000)" fill="#EF431D">
                <path d="M188.243,83.568 C188.165,85.331 187.191,114.493 187.099,115.823 L178.971,229.192 C172.604,353.777 110.281,387.558 99.142,392.612 C98.618,392.86 98.05,392.981 97.481,392.987 L97.439,392.987 C96.87,392.992 96.3,392.882 95.771,392.644 C93.369,391.612 88.628,389.317 82.552,385.134 C104.659,369.29 144.276,327.469 149.297,229.476 L157.425,116.107 C157.518,114.777 158.491,85.615 158.569,83.852 C160.594,39.121 135.14,5.92 78.866,1.546 C83.581,1.089 88.509,0.831 93.67,0.781 L93.712,0.781 C160.347,0.141 190.442,35.08 188.243,83.568 Z" id="Shape"></path>
                <path d="M134.179,142.512 L109.505,142.749 C105.306,142.789 101.87,139.419 101.829,135.219 C101.789,131.021 105.159,127.584 109.359,127.543 L134.033,127.306 C138.232,127.266 141.668,130.636 141.709,134.836 C141.748,139.035 138.378,142.472 134.179,142.512 Z" id="Shape"></path>
                <path d="M170.885,63.871 L146.21,64.108 C142.011,64.148 138.575,60.778 138.534,56.578 C138.494,52.38 141.864,48.943 146.064,48.902 L170.739,48.665 C174.938,48.625 178.374,51.995 178.415,56.195 C178.454,60.394 175.083,63.831 170.885,63.871 Z" id="Shape"></path>
                <path d="M1.266,94.915 C2.443,95.644 3.817,96.051 5.296,96.036 L29.97,95.799 C34.169,95.759 37.536,92.327 37.496,88.127 C37.456,83.928 34.024,80.551 29.824,80.591 L5.15,80.828 C3.44,80.844 1.857,81.43 0.596,82.412 L1.266,94.915 Z" id="Shape"></path>
                <path d="M90.642,211.091 L68.519,211.304 C64.32,211.344 60.884,207.974 60.843,203.774 C60.803,199.576 64.173,196.139 68.373,196.098 L90.496,195.885 C94.695,195.845 98.131,199.215 98.172,203.415 C98.212,207.615 94.841,211.051 90.642,211.091 Z" id="Shape"></path>
                <path d="M70.149,292.228 L48.026,292.441 C43.827,292.481 40.391,289.111 40.35,284.911 C40.31,280.713 43.68,277.276 47.88,277.235 L70.003,277.022 C74.202,276.982 77.638,280.352 77.679,284.552 C77.718,288.752 74.347,292.188 70.149,292.228 Z" id="Shape"></path>
                <path d="M117.87,351.254 L95.747,351.467 C91.548,351.507 88.112,348.137 88.071,343.937 C88.031,339.739 91.401,336.302 95.601,336.261 L117.724,336.048 C121.923,336.008 125.359,339.378 125.4,343.578 C125.439,347.777 122.069,351.213 117.87,351.254 Z" id="Shape"></path>
            </g>
        </g>
    </g>
</svg>